<?xml version="1.0" standalone="no"?>
<!DOCTYPE svg PUBLIC "-//W3C//DTD SVG 20010904//EN"
 "http://www.w3.org/TR/2001/REC-SVG-20010904/DTD/svg10.dtd">
<svg version="1.0" xmlns="http://www.w3.org/2000/svg"
 width="202.000000pt" height="249.000000pt" viewBox="0 0 202.000000 249.000000"
 preserveAspectRatio="xMidYMid meet">
<metadata>
Created by potrace 1.10, written by Peter Selinger 2001-2011
</metadata>
<g transform="translate(0.000000,249.000000) scale(0.100000,-0.100000)"
fill="#000000" stroke="none">
<path d="M1107 2459 c-8 -13 -17 -36 -21 -51 -4 -16 -21 -38 -42 -52 -45 -30
-82 -81 -90 -123 -6 -30 -9 -33 -38 -30 -30 2 -31 1 -34 -45 -3 -49 6 -60 28
-33 23 27 23 7 0 -29 -24 -40 -35 -46 -27 -16 3 11 1 18 -4 15 -4 -3 -7 -27
-5 -53 l3 -47 -90 -60 c-129 -86 -187 -164 -202 -272 -4 -26 -22 -86 -40 -133
-19 -47 -37 -101 -40 -120 -4 -19 -19 -47 -33 -62 -20 -22 -26 -38 -26 -79 -1
-35 4 -54 15 -62 11 -8 14 -19 9 -32 -12 -33 1 -206 20 -265 33 -100 32 -111
-12 -160 -25 -28 -42 -40 -45 -32 -3 6 -9 9 -15 6 -16 -10 -28 18 -17 39 9 15
13 16 27 5 14 -11 15 -11 9 5 -4 10 -7 25 -7 34 0 9 -9 3 -25 -15 -27 -32 -31
-53 -15 -82 7 -13 16 -17 28 -13 15 6 16 5 2 -13 -8 -10 -27 -31 -42 -46 -21
-23 -27 -25 -32 -12 -3 8 -11 12 -17 9 -8 -5 -8 -10 0 -18 6 -6 11 -19 11 -29
0 -10 3 -17 8 -17 19 3 22 -3 12 -21 -6 -11 -7 -20 -1 -20 15 0 23 -33 9 -42
-10 -6 -10 -8 0 -8 7 0 12 -13 12 -30 0 -25 -5 -30 -35 -39 -22 -6 -47 -6 -68
0 -40 11 -46 11 -27 -1 11 -7 -3 -10 -45 -9 -38 0 -53 3 -41 8 16 6 17 8 4 13
-9 4 -21 1 -27 -5 -8 -8 -11 -5 -11 10 0 12 -3 29 -7 39 -4 12 -3 15 5 10 7
-4 12 -2 12 3 0 6 -4 11 -10 11 -5 0 -10 12 -10 26 0 14 -5 34 -11 46 -6 11
-8 22 -5 25 3 3 43 5 88 4 45 -1 79 1 75 5 -4 4 -25 7 -47 6 -22 -2 -64 4 -94
13 -52 15 -55 18 -61 57 -5 30 -10 37 -17 27 -8 -11 -8 -10 -4 4 3 10 6 20 6
23 0 8 66 -10 90 -25 l25 -15 -19 22 c-13 15 -35 23 -78 28 -32 4 -57 9 -54
11 2 3 73 4 156 4 176 -2 175 -2 245 90 61 80 63 86 28 92 -82 16 -206 28
-228 23 -25 -6 -112 -87 -177 -164 l-36 -42 15 -57 c8 -31 21 -62 29 -68 8 -5
23 -52 34 -104 11 -52 22 -96 25 -99 3 -3 1 -10 -5 -17 -12 -15 13 -111 36
-136 15 -17 32 -19 169 -19 106 0 156 4 167 13 9 6 40 48 68 92 50 77 52 82
47 133 -3 30 -13 65 -22 78 -9 14 -23 57 -31 96 -8 40 -17 75 -20 80 -8 13 99
147 119 147 15 1 17 -9 17 -73 0 -41 5 -78 10 -81 6 -4 10 -64 10 -153 0 -81
2 -168 4 -194 2 -26 -2 -71 -10 -100 -7 -29 -14 -59 -14 -66 0 -19 51 -36 72
-23 9 6 30 8 45 5 16 -3 36 1 47 9 18 13 18 19 6 95 -13 87 -8 132 14 132 12
0 106 -21 157 -36 15 -4 15 1 3 46 -7 28 -16 55 -19 60 -9 14 -28 1 -21 -15 2
-7 -1 -18 -7 -24 -15 -15 -46 -14 -53 2 -3 8 -19 12 -42 11 -52 -2 -54 -3 -47
-14 3 -5 2 -10 -3 -10 -16 0 -32 -59 -25 -93 3 -17 12 -43 20 -57 15 -30 19
-94 3 -70 -8 13 -10 12 -10 -2 0 -10 -4 -18 -9 -18 -16 0 -25 23 -23 60 2 29
0 32 -9 17 -5 -9 -11 -30 -12 -45 -2 -23 -7 -27 -32 -27 -23 0 -31 5 -33 23
-2 12 1 22 7 22 6 0 11 7 11 16 0 8 4 13 9 10 7 -5 -2 71 -13 101 -3 6 -2 14
2 17 3 4 7 57 8 119 2 130 6 163 19 160 6 -1 28 -4 50 -8 48 -9 37 5 -19 24
-44 15 -69 36 -80 66 -7 19 -7 19 16 -1 46 -40 82 -56 139 -61 64 -6 58 -12
73 69 3 13 -1 37 -8 53 l-14 30 4 -38 c2 -32 0 -38 -14 -32 -9 3 -49 11 -90
17 -62 10 -75 10 -83 -3 -7 -10 -9 -2 -7 26 l3 40 70 11 c39 6 66 12 60 14
-15 3 -77 0 -107 -6 -34 -7 -37 12 -8 49 17 21 18 27 6 36 -19 16 -27 1 -32
-57 -2 -26 -4 -49 -4 -52 -3 -11 -23 46 -21 58 1 7 -2 12 -6 11 -20 -3 -25 2
-14 15 17 20 -20 53 -70 61 -52 9 -63 26 -65 104 -1 63 1 68 24 79 15 7 35 12
46 11 21 0 21 0 1 -9 -20 -8 -20 -8 0 -15 11 -4 29 -10 40 -14 26 -10 71 -7
67 5 -1 5 -12 9 -25 10 -12 0 -21 6 -20 12 2 7 -4 12 -12 12 -8 0 -15 4 -15 8
0 5 -26 13 -57 18 -54 8 -58 11 -59 37 -1 18 4 27 15 27 13 0 13 2 2 9 -11 7
-11 9 0 14 10 4 8 6 -4 6 -28 1 -12 18 24 25 22 4 41 0 63 -13 17 -10 48 -22
70 -25 45 -9 76 -26 76 -43 0 -7 9 -13 20 -13 22 0 27 -15 8 -24 -7 -3 0 -4
16 0 l30 5 -25 -20 c-13 -11 -18 -20 -11 -21 19 0 14 -55 -7 -74 -11 -10 -22
-28 -25 -42 -4 -13 -11 -24 -17 -24 -6 0 -7 -6 -3 -12 5 -8 1 -7 -10 1 -13 11
-17 25 -14 53 2 22 -1 38 -7 38 -15 0 -6 -87 11 -101 8 -6 14 -21 14 -33 0
-24 75 124 85 167 7 36 68 93 109 103 l31 7 -28 4 c-23 4 -26 8 -21 30 7 27
-14 133 -27 133 -4 0 -11 -5 -14 -11 -4 -6 -13 -8 -21 -5 -8 3 -17 -1 -20 -9
-4 -8 -11 -15 -18 -15 -13 0 -36 -46 -36 -71 0 -25 -21 -28 -55 -7 -16 10 -42
18 -57 18 -15 0 -30 5 -33 10 -3 6 -19 10 -36 10 -26 0 -29 3 -29 34 0 19 9
53 19 77 11 24 17 47 15 51 -3 4 0 8 5 8 6 0 11 10 11 23 0 12 5 29 10 37 8
12 10 12 10 -5 1 -17 3 -16 11 5 6 14 8 39 4 57 -3 18 -1 34 5 38 6 4 8 16 4
28 -3 12 -3 18 2 14 10 -10 46 62 37 76 -4 6 -1 7 6 2 14 -8 64 33 56 46 -3 4
0 11 6 15 7 4 9 3 5 -4 -4 -6 1 -10 13 -9 14 1 17 5 10 13 -9 11 15 41 30 38
13 -3 46 14 43 22 -2 5 2 10 9 13 7 2 9 -1 5 -8 -5 -7 -1 -9 8 -5 9 3 16 14
16 23 0 29 13 33 30 11 17 -22 16 -27 23 146 1 35 4 40 20 36 17 -4 18 -12 12
-66 -4 -47 -3 -57 5 -43 17 27 26 127 11 127 -16 0 -3 41 17 56 10 7 12 16 6
25 -17 27 -14 42 5 25 15 -14 17 -14 18 4 2 22 33 69 46 70 5 0 5 -6 1 -12 -4
-8 -3 -9 2 -5 5 5 9 16 9 25 0 28 31 25 59 -5 14 -15 26 -32 26 -36 0 -5 9
-22 21 -38 17 -24 27 -29 63 -29 39 0 45 3 56 30 12 29 13 30 30 13 14 -14 15
-20 5 -28 -10 -8 -10 -13 0 -22 7 -7 15 -10 18 -7 2 3 7 -2 10 -11 4 -8 2 -15
-3 -15 -6 0 -10 -3 -9 -7 3 -22 -15 -54 -28 -49 -8 3 -11 1 -8 -4 3 -6 -1 -10
-9 -10 -8 0 -18 6 -22 13 -4 6 -4 9 1 5 4 -4 14 -1 21 7 8 7 19 15 26 18 7 2
10 8 6 12 -4 4 -14 1 -22 -8 -9 -8 -29 -21 -45 -28 -21 -9 -27 -17 -21 -28 4
-9 13 -29 19 -44 6 -15 16 -25 21 -22 6 4 8 11 5 16 -4 5 1 9 9 9 15 0 21 12
17 33 -1 5 4 7 11 5 7 -3 15 -18 18 -34 5 -27 6 -28 18 -9 10 17 11 13 12 -30
0 -27 -5 -57 -10 -65 -8 -12 -10 -12 -10 -1 0 8 -3 11 -7 8 -3 -4 -12 -2 -20
5 -7 6 -17 8 -21 4 -4 -4 2 -13 13 -19 20 -11 25 -13 45 -16 7 -1 7 -7 0 -20
-7 -13 -7 -21 0 -24 6 -3 5 -4 -2 -2 -7 1 -12 6 -11 11 1 5 -8 10 -20 11 -12
1 -44 6 -70 12 -26 6 -83 10 -126 8 -87 -2 -106 -13 -107 -62 -1 -18 1 -21 3
-8 8 41 30 48 132 46 53 -2 114 -9 137 -15 l40 -13 -12 -50 c-6 -27 -12 -40
-13 -27 0 13 -6 32 -11 43 -8 14 -7 19 2 20 26 3 -109 17 -174 18 -65 1 -68 0
-68 -23 0 -25 35 -43 54 -26 16 13 119 7 124 -8 2 -6 8 -12 13 -12 6 0 7 5 3
12 -5 8 -2 9 10 5 10 -4 21 -7 26 -7 4 0 10 -14 12 -30 4 -26 2 -29 -15 -24
-14 4 -17 3 -12 -6 6 -10 -8 -12 -66 -7 -81 5 -162 34 -154 55 2 6 -2 12 -10
12 -24 0 -17 -17 14 -39 40 -29 146 -54 199 -48 51 6 73 24 78 62 1 15 8 33
15 39 9 8 10 5 5 -14 -3 -14 -6 -33 -6 -42 0 -9 -6 -23 -13 -30 -7 -7 -16 -21
-20 -30 -3 -10 -13 -18 -20 -18 -10 0 -13 -8 -10 -23 5 -23 3 -24 -54 -21 -51
2 -54 2 -18 -5 36 -7 33 -8 -30 -9 -93 -1 -152 11 -176 37 -23 25 -29 26 -29
6 0 -8 6 -15 14 -15 8 0 16 -6 19 -12 18 -48 307 -52 307 -4 0 5 6 17 13 25
24 30 46 116 63 246 6 41 -8 173 -28 262 -6 31 -21 61 -35 74 -17 17 -23 33
-23 66 0 33 -7 50 -28 74 -26 29 -35 32 -104 37 -72 4 -77 3 -91 -19z m111
-15 c6 -1 22 -2 35 -3 18 -1 19 -3 7 -11 -11 -7 -11 -10 -2 -10 7 0 10 -4 7
-10 -4 -6 1 -7 11 -3 11 4 15 3 11 -4 -4 -6 -3 -13 3 -15 5 -1 11 -14 12 -28
2 -19 -2 -26 -19 -28 -25 -4 -32 -36 -10 -46 6 -3 -3 -4 -22 -3 -28 2 -38 9
-54 37 -10 19 -31 48 -45 63 l-27 29 30 -7 c23 -5 26 -4 15 4 -12 8 -12 11 -1
11 10 0 11 3 2 14 -10 11 -8 15 6 18 10 2 20 1 23 -2 3 -3 11 -5 18 -6z m-363
-1021 c-4 -10 -6 -53 -6 -96 l2 -78 -25 16 c-13 9 -31 15 -40 13 -8 -2 -15 0
-16 5 -3 24 23 83 52 117 37 43 43 47 33 23z m-280 -435 c14 -6 25 -15 25 -20
0 -5 4 -7 9 -4 5 4 7 -4 3 -16 -6 -23 -73 -120 -79 -114 -2 2 3 18 11 37 9 19
16 30 16 24 1 -11 29 35 30 49 0 5 -18 -11 -39 -35 l-40 -44 3 40 c2 22 -1 45
-6 52 -6 7 -1 17 14 27 27 19 21 19 53 4z m-266 -62 c30 1 39 -1 30 -8 -9 -6
3 -8 39 -5 44 3 52 1 52 -13 0 -9 -10 -25 -21 -36 -12 -10 -32 -36 -45 -56
l-24 -38 -135 0 c-73 0 -136 4 -139 9 -4 5 3 7 14 4 14 -4 20 0 20 11 0 9 7
16 16 16 8 0 13 4 10 9 -7 11 19 33 28 24 4 -4 4 -1 1 8 -4 10 6 20 30 32 41
19 49 21 40 8 -3 -5 -1 -12 4 -15 14 -9 21 8 11 24 -7 11 -13 12 -36 2 -14 -7
-29 -11 -31 -8 -2 2 5 7 16 11 12 3 19 11 16 16 -3 5 2 6 11 2 12 -5 15 -3 9
6 -6 10 -2 11 16 5 13 -5 44 -8 68 -8z m501 -132 c51 -10 70 -22 70 -44 0 -14
-7 -20 -22 -20 -37 0 -68 12 -62 22 4 6 -2 5 -14 -1 -31 -17 -44 -14 -37 9 5
14 2 20 -10 20 -9 0 -13 -4 -10 -10 3 -5 1 -10 -4 -10 -6 0 -11 7 -11 16 0 8
-4 12 -10 9 -6 -3 -7 1 -4 10 7 17 25 17 114 -1z m-310 -85 c-6 -11 -8 -24 -5
-30 13 -20 23 -124 13 -136 -5 -7 -7 -17 -3 -23 3 -5 1 -10 -5 -10 -6 0 -9 -4
-6 -9 3 -4 -6 -19 -20 -32 -15 -13 -30 -35 -35 -48 -14 -36 -24 -17 -48 89
l-21 95 62 67 c60 63 90 80 68 37z m65 -197 c-3 -3 -5 1 -5 9 0 7 -8 2 -17
-11 -10 -14 -18 -28 -18 -31 0 -4 -12 -21 -27 -40 -16 -18 -28 -36 -28 -39 0
-13 -79 -42 -102 -37 -13 2 -34 1 -48 -3 -19 -6 -10 -8 33 -9 38 -1 66 5 83
15 13 9 26 15 27 13 2 -2 8 -16 14 -31 10 -23 9 -28 -10 -41 -36 -23 -67 -27
-67 -10 0 12 -8 14 -39 9 -33 -5 -40 -3 -44 11 -2 10 -3 6 -1 -8 2 -23 -1 -25
-37 -27 -35 -3 -40 0 -50 25 -10 27 -11 27 -25 9 -8 -11 -14 -16 -14 -12 0 5
-6 3 -14 -3 -11 -9 -15 -6 -20 15 -9 35 -3 39 55 37 27 -1 49 2 49 8 0 5 -11
7 -24 3 -13 -3 -27 -1 -30 5 -4 6 -28 12 -54 13 -26 1 27 5 118 8 l165 5 60
81 c51 68 61 77 68 61 4 -11 5 -22 2 -25z m-20 -79 c10 -14 10 -21 -2 -40 -8
-13 -20 -20 -25 -17 -6 4 -14 0 -19 -7 -6 -11 -9 -10 -15 5 -8 21 8 52 25 49
6 -2 11 4 11 12 0 20 10 19 25 -2z"/>
<path d="M1064 2229 c-12 -21 6 -59 29 -59 18 -1 15 -4 -15 -21 -21 -11 -38
-25 -37 -32 0 -9 2 -9 6 1 3 9 12 5 30 -13 14 -14 33 -25 42 -25 10 1 6 6 -11
16 -31 16 -34 24 -16 42 16 16 59 15 81 -2 15 -12 15 -15 2 -26 -8 -7 -12 -16
-9 -21 7 -12 34 -11 34 1 0 5 -8 7 -17 4 -15 -5 -15 -4 -3 4 10 8 19 7 29 -1
12 -10 13 -9 6 2 -5 9 -2 18 8 26 14 10 15 14 1 33 -14 21 -50 20 -38 0 8 -12
8 -12 -58 21 -52 25 -63 41 -23 33 15 -2 25 0 25 7 0 6 -6 11 -12 12 -7 0 -21
2 -30 4 -10 2 -21 -1 -24 -6z"/>
<path d="M1160 2045 c-8 -10 -31 -15 -68 -15 -30 0 -53 -2 -50 -5 8 -9 167
-11 161 -2 -2 4 0 7 5 7 6 0 12 -6 15 -14 4 -10 -3 -16 -21 -20 -15 -2 -9 -3
13 -1 74 5 97 14 101 39 1 11 -5 11 -31 3 -25 -7 -40 -6 -65 7 -41 20 -44 20
-60 1z"/>
<path d="M915 1895 c4 -22 11 -47 16 -55 6 -10 7 -1 3 25 -4 22 -11 47 -16 55
-6 10 -7 1 -3 -25z"/>
<path d="M1428 1917 c8 -9 20 -13 29 -10 10 4 14 2 10 -4 -8 -12 20 -26 34
-17 6 3 30 -16 56 -42 37 -39 46 -56 47 -85 0 -21 3 -33 7 -28 7 13 39 0 39
-15 0 -7 11 -23 25 -36 14 -13 23 -30 20 -37 -2 -8 2 -16 10 -19 24 -10 17
-22 -18 -33 -34 -12 -109 -83 -120 -114 -5 -14 -10 -15 -25 -6 -16 10 -20 26
-21 88 -2 82 -11 113 -11 39 0 -45 -32 -104 -50 -93 -4 3 -13 -2 -20 -10 -8
-9 -8 -15 -2 -15 6 0 12 6 15 13 3 6 4 2 4 -10 -1 -12 -4 -20 -8 -17 -16 10
-19 -17 -4 -32 12 -12 13 -20 6 -27 -14 -14 -14 -30 -1 -22 6 3 10 2 10 -3 0
-5 -16 -17 -35 -26 -19 -9 -40 -25 -48 -36 -8 -11 -16 -18 -19 -15 -3 3 -11
-1 -18 -10 -10 -12 -40 -15 -164 -15 l-152 0 -34 -35 c-19 -19 -42 -35 -53
-35 -21 0 -117 -60 -117 -74 0 -4 6 -3 13 3 8 6 16 9 19 6 3 -3 11 1 18 10 7
8 21 15 31 15 10 0 20 4 23 9 3 5 14 11 25 14 15 3 18 1 14 -11 -5 -10 -2 -13
6 -8 8 5 21 -1 33 -15 52 -58 62 -72 51 -65 -9 5 -13 1 -13 -12 0 -19 -65 -72
-88 -72 -6 0 -16 -9 -22 -20 -6 -12 -21 -20 -35 -20 -19 0 -25 -5 -25 -21 0
-19 1 -19 16 -5 8 9 20 14 25 11 11 -8 104 53 152 99 30 29 43 35 65 31 23 -5
24 -4 7 5 -16 8 -11 9 23 6 32 -3 44 0 51 13 8 15 3 16 -59 7 l-68 -9 -46 46
c-42 44 -44 49 -35 77 6 16 16 30 22 31 7 0 44 2 82 4 39 2 99 0 134 -3 l64
-7 -26 -25 c-56 -52 -24 -39 41 17 90 79 149 124 159 121 15 -3 92 25 88 33
-9 13 25 38 60 45 19 3 33 10 30 14 -9 14 14 25 78 37 33 6 107 -23 107 -43 0
-7 5 -14 11 -16 28 -9 17 -168 -12 -168 -6 0 -7 -5 -3 -11 4 -7 0 -9 -14 -5
-12 4 -23 2 -28 -5 -4 -8 -3 -9 4 -5 8 5 10 2 6 -8 -8 -20 -9 -20 -30 2 -17
16 -18 16 -11 0 3 -10 2 -18 -3 -18 -5 0 -15 -6 -22 -12 -20 -19 -61 -41 -54
-30 3 6 0 12 -7 15 -9 3 -13 -5 -12 -25 0 -17 -3 -30 -7 -29 -5 0 -13 1 -19 1
-8 0 -7 5 1 16 16 19 21 95 8 111 -15 18 -1 50 14 35 7 -7 27 -12 46 -12 18 0
41 -4 51 -9 19 -11 50 3 37 16 -4 4 -33 8 -64 8 -57 0 -57 0 -60 32 -2 20 -10
33 -20 36 -14 3 -12 6 8 14 18 7 28 7 38 -3 20 -21 55 -17 71 8 12 20 11 24
-15 45 -16 13 -38 23 -49 23 -17 -1 -16 -3 7 -16 15 -8 32 -23 38 -34 13 -24
-2 -27 -20 -5 -13 16 -52 13 -90 -5 -55 -27 -93 -39 -103 -34 -7 4 -9 4 -5 -1
4 -4 -27 -34 -70 -65 -42 -31 -101 -82 -130 -113 -51 -55 -102 -144 -102 -179
0 -24 -17 -23 -30 2 -11 21 -5 44 10 35 5 -3 12 0 16 6 4 8 3 9 -4 5 -7 -4
-12 -2 -12 4 0 16 -23 -9 -37 -42 -15 -33 -9 -38 43 -38 32 0 44 4 48 18 6 18
96 77 96 63 0 -5 10 -7 21 -4 19 5 20 7 4 16 -22 12 -92 -10 -105 -32 -16 -30
-22 -3 -5 28 13 27 21 31 54 31 22 0 61 5 88 11 46 11 52 10 126 -25 42 -20
77 -41 77 -47 0 -6 -4 -7 -10 -4 -6 3 -7 -1 -4 -9 3 -9 9 -16 13 -16 12 1 43
52 45 75 0 13 4 21 8 19 4 -2 8 6 10 18 2 13 11 24 23 27 21 4 108 60 113 73
2 4 12 8 21 8 38 0 91 89 91 152 -1 72 -61 162 -133 199 -23 12 -51 41 -74 77
-119 182 -190 252 -274 269 -30 6 -33 5 -21 -10z m338 -346 c13 -10 20 -21 17
-25 -3 -3 2 -6 11 -6 25 0 74 -37 90 -69 8 -15 17 -45 20 -66 l7 -40 -17 45
c-21 58 -31 69 -79 91 -60 28 -96 24 -155 -16 -29 -19 -54 -35 -56 -35 -2 0
-4 10 -4 23 0 37 78 102 138 116 2 1 15 -7 28 -18z m-223 -144 c17 -12 16 -14
-17 -29 l-35 -17 -11 37 c-5 20 -10 45 -10 55 0 16 3 15 28 -7 15 -14 35 -31
45 -39z m67 -90 c11 -4 10 -6 -4 -6 -14 -1 -16 -4 -7 -15 9 -10 8 -16 -4 -26
-19 -16 -19 -22 5 -73 18 -38 18 -46 6 -92 -11 -39 -15 -46 -20 -30 -4 11 -16
39 -27 63 -10 23 -19 54 -19 68 0 14 -7 39 -16 57 -9 17 -13 32 -8 34 5 2 23
11 39 22 17 10 32 15 35 11 3 -4 12 -10 20 -13z m-112 -59 c1 -13 2 -31 3 -41
0 -9 7 -29 14 -44 18 -35 10 -42 -53 -50 -29 -3 -52 -10 -52 -14 0 -13 -44
-11 -58 3 -9 9 -12 8 -12 -5 0 -10 -8 -17 -20 -17 -26 0 -20 12 35 71 41 45
126 118 135 119 3 0 7 -10 8 -22z m132 -17 c17 -33 11 -48 -10 -22 -11 13 -20
27 -20 32 0 16 19 9 30 -10z"/>
<path d="M1155 1830 c-28 -6 -27 -7 15 -13 87 -12 109 -13 104 -5 -3 4 -14 8
-24 8 -10 0 -21 6 -23 13 -4 10 -6 10 -6 0 -1 -14 -27 -18 -33 -5 -1 4 -16 5
-33 2z"/>
<path d="M1232 1548 c-1 -10 -6 -18 -11 -18 -5 0 -11 -10 -13 -22 -2 -18 -14
-26 -53 -36 -27 -7 -71 -11 -97 -8 -27 3 -48 1 -48 -4 0 -6 15 -10 33 -10 30
-1 31 -1 13 -15 -19 -14 -18 -15 10 -15 54 0 106 12 92 21 -8 6 -2 9 20 9 22
0 32 5 32 15 0 17 16 20 25 5 9 -15 25 -12 25 5 0 8 -4 15 -9 15 -6 0 -12 17
-14 38 -2 20 -4 29 -5 20z"/>
<path d="M1273 1462 c-4 -15 -15 -22 -42 -25 -21 -2 -9 -4 30 -5 36 -1 87 1
112 4 40 6 44 8 31 21 -8 8 -39 17 -70 20 -50 5 -56 4 -61 -15z"/>
<path d="M1759 1109 c-13 -12 -34 -28 -47 -37 -12 -8 -20 -17 -18 -20 3 -3 11
0 18 5 7 5 22 13 32 17 17 6 17 5 5 -11 -12 -15 -12 -16 3 -10 11 4 18 0 21
-11 3 -15 5 -15 12 2 6 13 4 21 -3 24 -14 4 -16 32 -3 32 5 0 12 -6 14 -12 3
-7 6 -1 6 15 1 33 -8 34 -40 6z"/>
<path d="M1416 1082 c-3 -5 17 -8 44 -8 27 0 47 3 44 8 -3 4 -23 8 -44 8 -21
0 -41 -4 -44 -8z"/>
<path d="M1470 1000 c-19 -4 -46 -12 -60 -18 -23 -10 -23 -11 -4 -11 12 -1 41
6 64 14 23 8 45 13 49 11 4 -3 13 -1 20 3 16 10 -19 10 -69 1z"/>
<path d="M1118 965 c-9 -21 -7 -30 17 -65 36 -51 45 -57 45 -28 l1 23 12 -23
c7 -12 16 -19 20 -16 4 4 7 2 7 -4 0 -7 6 -12 13 -12 6 0 19 -17 29 -38 l16
-37 1 31 c2 50 -17 87 -57 114 -50 34 -60 37 -42 14 14 -19 14 -19 -8 0 -23
20 -30 32 -12 21 14 -9 12 7 -4 28 -18 23 -24 22 -38 -8z"/>
<path d="M1709 953 c21 -43 4 -63 -18 -20 -11 22 -11 21 -4 -3 3 -14 6 -31 6
-37 0 -18 11 -16 30 5 21 23 39 72 27 72 -6 0 -10 -10 -10 -22 l0 -23 -21 25
c-17 21 -19 22 -10 3z"/>
<path d="M837 910 c-6 -23 0 -30 27 -29 12 0 15 3 9 6 -7 2 -13 11 -13 18 0
22 -17 26 -23 5z"/>
<path d="M455 855 c-3 -8 -7 -21 -9 -29 -5 -17 22 -58 33 -51 5 2 11 14 14 26
5 17 2 20 -15 16 -17 -5 -20 -2 -16 24 5 31 0 39 -7 14z"/>
<path d="M1280 849 c0 -5 5 -9 11 -9 6 0 9 -7 5 -15 -3 -8 0 -15 6 -15 7 0 6
-5 -2 -15 -23 -28 -5 -34 28 -9 19 15 32 34 32 47 -1 22 -1 22 -20 -2 -19 -22
-20 -22 -20 -3 0 11 -8 22 -20 25 -11 3 -20 1 -20 -4z"/>
<path d="M1720 840 c0 -5 5 -10 12 -10 6 0 9 -3 5 -6 -3 -4 0 -13 8 -21 8 -8
15 -26 15 -39 0 -73 30 -141 96 -215 29 -34 31 -40 23 -80 -4 -24 -8 -47 -9
-51 0 -12 -47 -58 -58 -58 -6 0 -13 -8 -16 -18 -8 -23 -49 -46 -68 -39 -8 3
-5 6 8 6 11 1 29 10 39 21 22 24 14 38 -8 15 -9 -8 -36 -18 -61 -21 -56 -8
-91 12 -112 61 -31 74 -9 120 69 145 49 15 41 25 -8 11 -57 -15 -85 -47 -85
-94 0 -38 -1 -39 -17 -24 -10 8 -30 19 -45 22 -34 9 -38 -13 -8 -40 11 -10 20
-13 20 -7 0 6 -6 13 -12 15 -8 4 -7 6 3 6 9 1 22 -6 29 -14 7 -8 16 -12 21 -9
5 3 9 -4 9 -15 0 -11 11 -28 24 -39 l25 -19 -21 -34 -20 -34 29 28 c25 23 34
26 54 18 21 -9 11 -17 -15 -12 -5 1 -3 -5 4 -14 7 -8 10 -19 6 -22 -4 -4 -12
-1 -17 7 -8 11 -8 8 -3 -10 11 -39 10 -52 -5 -58 -9 -3 -11 0 -6 8 6 10 2 11
-19 6 -20 -5 -26 -3 -26 9 0 12 -6 15 -22 10 -21 -5 -21 -5 -6 8 14 11 15 14
2 23 -14 8 -14 12 0 38 8 16 12 34 9 39 -3 5 -12 -5 -20 -22 -9 -17 -19 -28
-24 -25 -5 3 -9 1 -9 -4 0 -6 -8 -9 -17 -7 -70 14 -71 15 -66 35 5 19 -11 29
-19 13 -1 -5 -22 -21 -45 -36 -56 -39 -76 -31 -102 39 -12 30 -21 57 -21 59 0
15 36 0 76 -31 46 -34 83 -41 91 -17 5 13 -69 93 -84 93 -4 0 1 -7 12 -15 18
-14 17 -15 -13 -12 -18 2 -37 8 -43 14 -23 23 -49 169 -49 279 0 93 -3 113
-17 127 -17 15 -18 7 -9 -151 5 -92 9 -199 10 -239 1 -39 4 -69 7 -67 4 2 12
-16 18 -41 12 -47 34 -68 85 -81 20 -5 27 -4 22 4 -5 8 -2 10 8 6 9 -3 14 -11
13 -16 -1 -6 5 -13 13 -15 13 -4 13 -3 0 7 -13 10 -13 11 2 6 10 -3 20 -1 23
5 4 5 3 9 -2 8 -27 -5 -33 2 -23 21 14 26 26 25 33 -2 7 -23 -28 -72 -44 -63
-4 3 -10 1 -14 -5 -3 -5 -24 -10 -45 -10 -30 0 -43 5 -55 24 -8 13 -13 31 -9
40 5 12 2 15 -10 10 -10 -4 -16 -1 -16 7 0 8 -7 27 -15 42 -8 15 -10 25 -5 22
5 -3 11 -1 14 4 6 9 -23 25 -31 18 -8 -8 19 -106 33 -118 8 -6 14 -17 14 -24
0 -21 50 -55 80 -55 29 0 109 49 138 83 22 28 72 25 72 -4 0 -35 44 -69 90
-69 22 0 40 5 40 10 0 6 11 10 25 10 30 0 33 24 8 52 -20 23 -14 29 31 32 20
2 44 10 54 18 9 8 25 18 35 21 9 4 17 11 17 17 0 5 14 10 30 10 31 0 109 34
121 52 4 6 4 19 2 29 -3 10 -1 19 5 19 13 0 32 56 31 89 l-2 26 -5 -25 c-4
-23 -5 -23 -12 -5 -6 17 -7 17 -12 -7 -3 -15 -1 -25 3 -22 5 3 9 -2 9 -10 0
-24 -18 -28 -25 -6 -4 13 1 36 14 60 11 22 16 40 11 40 -6 0 -10 7 -10 16 0 8
5 12 10 9 14 -9 13 8 -2 23 -20 20 -28 14 -28 -18 0 -35 -23 -86 -42 -92 -8
-3 -6 -7 5 -11 10 -4 17 -1 17 6 1 9 29 -59 30 -70 1 -12 -39 1 -44 13 -4 9
-9 14 -12 11 -4 -3 4 -20 16 -37 23 -32 21 -52 -3 -32 -8 7 -16 10 -18 7 -3
-2 -5 4 -5 13 0 9 -3 30 -7 45 -5 19 -4 26 2 22 26 -16 -32 111 -90 197 -26
38 -39 68 -39 90 0 19 -7 44 -16 56 -16 23 -34 29 -34 12z"/>
<path d="M1153 785 c0 -33 2 -45 4 -27 2 18 2 45 0 60 -2 15 -4 0 -4 -33z"/>
<path d="M263 743 c-112 -4 -141 -17 -42 -19 35 -1 64 -6 68 -13 4 -6 15 -9
23 -6 9 4 18 1 21 -7 2 -7 2 -3 0 10 -2 14 2 22 11 22 8 0 18 5 21 10 3 6 5 9
3 8 -2 -1 -49 -4 -105 -5z"/>
<path d="M1347 718 c3 -18 9 -35 13 -38 3 -3 10 -13 13 -24 6 -16 14 -17 53
-11 30 4 50 2 60 -6 8 -6 14 -10 15 -8 7 37 7 40 -12 34 -18 -6 -28 9 -11 18
4 2 2 3 -4 1 -6 -1 -33 13 -60 32 -63 43 -75 43 -67 2z m38 -8 c4 -6 12 -7 18
-3 8 4 7 1 -1 -9 -9 -11 -10 -18 -2 -23 5 -3 10 -11 10 -17 0 -7 -6 -6 -15 2
-8 7 -15 21 -15 30 0 10 -6 21 -12 23 -10 4 -10 6 -1 6 6 1 15 -4 18 -9z"/>
<path d="M1330 655 c0 -6 9 -21 19 -34 15 -20 23 -23 47 -15 l29 8 -32 4 c-19
2 -39 12 -48 25 -8 12 -15 17 -15 12z"/>
<path d="M1110 641 c0 -6 7 -39 15 -76 9 -36 13 -71 9 -77 -4 -7 -3 -8 5 -4 8
6 10 -3 5 -33 -5 -29 -3 -41 5 -41 7 0 10 -4 6 -10 -3 -5 -11 -7 -18 -5 -8 4
-13 -7 -14 -30 -1 -19 3 -33 8 -30 5 3 6 0 3 -8 -2 -7 0 -26 6 -41 8 -21 6
-35 -6 -62 -9 -19 -19 -34 -23 -34 -3 0 -7 -19 -8 -42 -2 -23 -8 -47 -14 -52
-16 -17 -41 23 -35 57 4 17 1 27 -7 28 -6 1 2 5 18 9 l30 7 -25 10 c-32 14
-36 9 -44 -57 -5 -48 -3 -57 14 -68 26 -16 140 -5 147 15 3 8 -2 40 -11 72 -9
33 -16 93 -16 142 1 46 0 107 0 134 0 61 -30 205 -41 205 -5 0 -9 -4 -9 -9z
m46 -511 c19 0 18 -19 -2 -27 -28 -11 -38 23 -23 82 1 6 4 -5 6 -22 3 -20 10
-33 19 -33z"/>
<path d="M1300 564 c0 -5 11 -25 25 -44 14 -19 25 -28 25 -21 0 20 43 8 46
-12 3 -24 14 -35 14 -14 0 17 26 47 41 47 5 0 9 -10 9 -22 1 -20 2 -21 10 -6
20 34 2 48 -58 44 -53 -4 -88 6 -104 29 -5 7 -8 6 -8 -1z"/>
<path d="M1696 515 c-62 -25 -95 -50 -83 -61 4 -4 18 2 30 15 30 27 76 41 105
30 14 -5 21 -5 17 1 -6 10 62 26 71 17 3 -3 -4 -15 -15 -26 -24 -24 -31 -96
-8 -88 6 2 11 14 10 26 -2 12 1 20 7 16 5 -3 16 8 25 25 14 28 14 31 -5 50
-27 27 -80 26 -154 -5z"/>
<path d="M1668 469 c-24 -14 -23 -29 3 -29 16 0 20 -5 16 -20 -3 -10 1 -24 7
-30 10 -7 16 0 25 30 7 22 9 45 6 50 -8 13 -35 12 -57 -1z"/>
<path d="M1515 348 c-8 -25 -19 -36 -45 -45 -33 -11 -34 -12 -7 -12 34 -1 67
31 67 64 0 33 -4 31 -15 -7z"/>
</g>
</svg>
